#!OML:ASF I:\golf\golf\golf 2\Subject 1\2002-09-07\Subject1.ASF
:FULLY-SPECIFIED
:DEGREES
272
root -1.94988 17.2063 -2.26389 70.6864 27.1562 14.0314
lowerback 35.7824 4.65032 8.45126
upperback 18.008 9.11986 14.2223
thorax 0.722793 4.17603 7.82766
lowerneck -17.3461 -11.1721 -7.73569
upperneck -6.70941 -13.9231 1.19406
head 1.3173 -7.01595 0.71985
rclavicle -9.85972e-014 1.27222e-014
rhumerus 65.8462 -15.171 -24.1645
rradius 22.6048
rwrist 18.6028
rhand -44.063 11.9623
rfingers 7.12502
rthumb -16.8818 -17.3239
lclavicle -9.85972e-014 1.27222e-014
lhumerus -17.3296 -62.4248 96.5779
lradius 60.4035
lwrist -26.0283
lhand -52.9978 37.8822
lfingers 7.12502
lthumb -25.4636 66.2011
rfemur -94.0883 -7.81357 21.6442
rtibia 37.9136
rfoot -4.29957 -8.6907
rtoes 17.8184
lfemur -46.888 -2.00807 -3.55936
ltibia 40.3419
lfoot 10.7344 -4.8981
ltoes -13.9782
273
root -1.94812 17.2208 -2.24463 70.8759 27.1614 14.1395
lowerback 35.8243 4.61686 8.62014
upperback 17.9872 9.13443 14.2447
thorax 0.710855 4.18769 7.75986
lowerneck -17.2772 -11.2535 -7.64706
upperneck -6.77063 -14.0661 1.1578
head 1.27934 -7.09314 0.689621
rclavicle 1.90833e-014 -3.65764e-014
rhumerus 65.8226 -15.2827 -23.9418
rradius 22.3698
rwrist 19.4836
rhand -43.4752 12.8873
rfingers 7.12502
rthumb -16.3159 -16.4464
lclavicle 1.90833e-014 -3.65764e-014
lhumerus -17.3504 -62.6885 96.6047
lradius 60.2735
lwrist -25.9797
lhand -53.0713 37.9503
lfingers 7.12502
lthumb -25.534 66.2592
rfemur -93.9446 -7.7935 21.2736
rtibia 37.6029
rfoot -4.17255 -8.94406
rtoes 18.3857
lfemur -46.4419 -2.02567 -3.51383
ltibia 40.2377
lfoot 10.8571 -4.43795
ltoes -12.6894
274
root -1.95196 17.2393 -2.21689 70.8299 27.0613 14.1091
lowerback 36.0907 4.66928 8.59933
upperback 17.9976 9.21943 14.2567
thorax 0.617114 4.21851 7.73874
lowerneck -17.2795 -11.2614 -7.39699
upperneck -6.80104 -14.1325 1.01534
head 1.23975 -7.1369 0.604212
rclavicle 3.81667e-014 -6.36111e-014
rhumerus 65.7839 -15.3834 -23.8919
rradius 22.1939
rwrist 20.3371
rhand -43.8129 12.8917
rfingers 7.12502
rthumb -16.641 -16.4149
lclavicle 3.81667e-014 -6.36111e-014
lhumerus -17.192 -62.7643 96.4576
lradius 59.6664
lwrist -25.6448
lhand -51.1876 34.8209
lfingers 7.12502
lthumb -23.7285 63.376
rfemur -93.5938 -7.56994 20.8052
rtibia 37.2973
rfoot -4.02117 -9.36274
rtoes 18.4405
lfemur -45.7389 -1.74238 -3.67974
ltibia 40.0593
lfoot 10.8822 -4.58748
ltoes -13.4104
275
root -1.95519 17.2542 -2.19019 70.7691 26.9754 14.0762
lowerback 36.3285 4.71446 8.59721
upperback 18.0078 9.29756 14.2694
thorax 0.537425 4.24772 7.71328
lowerneck -17.1563 -11.2397 -7.22413
upperneck -7.00239 -14.1591 0.989191
head 1.13586 -7.15415 0.583017
rclavicle -3.81667e-014 -6.36111e-014
rhumerus 65.7153 -15.4156 -23.7342
rradius 22.0398
rwrist 20.3318
rhand -43.5612 13.9254
rfingers 7.12502
rthumb -16.3988 -15.4014
lclavicle -3.81667e-014 -6.36111e-014
lhumerus -17.4477 -63.3584 96.6616
lradius 60.0498
lwrist -25.0899
lhand -54.8384 39.5487
lfingers 7.12502
lthumb -27.2256 67.604
rfemur -93.2404 -7.35311 20.3759
rtibia 37.0015
rfoot -3.85393 -9.67509
rtoes 18.3067
lfemur -45.0087 -1.524 -3.78583
ltibia 39.83
lfoot 10.8474 -5.03011
ltoes -14.9106
276
root -1.9569 17.272 -2.16707 70.794 26.9478 14.0968
lowerback 36.3914 4.67198 8.69631
upperback 18.0116 9.27699 14.233
thorax 0.548807 4.24267 7.63043
lowerneck -16.888 -11.2281 -7.15695
upperneck -7.31048 -14.1926 1.11413
head 0.99386 -7.16845 0.635243
rclavicle -1.59028e-014 -9.06458e-014
rhumerus 65.5426 -15.3289 -23.3798
rradius 22.0121
rwrist 19.4068
rhand -42.9807 15.2818
rfingers 7.12502
rthumb -15.8398 -14.0902
lclavicle -1.59028e-014 -9.06458e-014
lhumerus -17.0696 -62.7909 96.1802
lradius 58.9628
lwrist -27.1204
lhand -51.5091 39.0588
lfingers 7.12502
lthumb -24.0368 67.5736
rfemur -92.9479 -7.22734 20.008
rtibia 36.6982
rfoot -3.77284 -9.90822
rtoes 18.8822
lfemur -44.4235 -1.45664 -3.76559
ltibia 39.5951
lfoot 10.8247 -5.55611
ltoes -16.3843
277
root -1.95614 17.2937 -2.15181 70.8836 26.9831 14.2417
lowerback 36.4836 4.54514 8.9004
upperback 17.963 9.20135 14.1878
thorax 0.517872 4.21715 7.49919
lowerneck -16.7675 -11.2407 -7.15413
upperneck -7.45352 -14.2249 1.28163
head 0.941293 -7.18183 0.695262
rclavicle 9.22361e-014 3.97569e-014
rhumerus 65.458 -15.311 -23.3668
rradius 21.9733
rwrist 18.8878
rhand -42.6779 16.0238
rfingers 7.12502
rthumb -15.5481 -13.3712
lclavicle 9.22361e-014 3.97569e-014
lhumerus -17.1471 -62.8959 96.2362
lradius 59.4097
lwrist -23.6092
lhand -53.3607 33.6551
lfingers 7.12502
lthumb -25.8112 61.9239
rfemur -92.6785 -7.2411 19.6559
rtibia 36.3789
rfoot -3.57824 -10.1804
rtoes 18.6122
lfemur -44.0173 -1.53998 -3.72693
ltibia 39.3946
lfoot 10.7778 -6.14642
ltoes -18.5903
278
root -1.95366 17.3086 -2.14236 70.9859 26.9796 14.414
lowerback 36.6007 4.48495 9.02258
upperback 17.885 9.194 14.1979
thorax 0.412636 4.2157 7.43873
lowerneck -16.793 -11.2983 -7.20005
upperneck -7.44862 -14.2927 1.3689
head 0.960279 -7.21508 0.72165
rclavicle -5.725e-014 1.27222e-014
rhumerus 65.4789 -15.4245 -23.8497
rradius 21.8315
rwrist 19.1595
rhand -42.3179 16.4997
rfingers 7.12502
rthumb -15.2014 -12.9219
lclavicle -5.725e-014 1.27222e-014
lhumerus -17.151 -62.8485 96.2274
lradius 58.3558
lwrist -26.7529
lhand -51.1902 37.6765
lfingers 7.12502
lthumb -23.7311 66.2313
rfemur -92.459 -7.2799 19.2653
rtibia 36.0486
rfoot -3.20819 -10.5741
rtoes 18.713
lfemur -43.6464 -1.56326 -3.79352
ltibia 39.2091
lfoot 10.7397 -6.44076
ltoes -20.004
